
        <svg xmlns="http://www.w3.org/2000/svg" xmlns:xlink="http://www.w3.org/1999/xlink" version="1.1" width="3170.0198385880385" 
        height="1063.9841648011509" viewBox="0 0 3170.0198385880385 1063.9841648011509">
			<rect fill="#590d82" width="3170.0198385880385" height="1063.9841648011509"/>
			<g transform="scale(8.500991929401918) translate(10, 10)">
				<defs id="SvgjsDefs1650"></defs><g id="SvgjsG1651" featureKey="symbolContainer" transform="matrix(1,0,0,1,0,2)" fill="#ffffff">    <path xmlns="http://www.w3.org/2000/svg" fill-rule="nonzero" d="             M0,0             H103             V102             H0,0             z             M4,4             v94             h95             v-94             z     "></path></g><g id="SvgjsG1652" featureKey="monogramFeature-0" transform="matrix(1.7650023584560846,0,0,1.7650023584560846,10.434192438474305,-15.770042452209523)" fill="#ffffff"><path d="M3.72 60 l0 -42 l10.86 0 l17.28 22.2 l0 -22.2 l11.52 0 l0 42 l-10.2 0 l-17.94 -23.04 l0 23.04 l-11.52 0 z"></path></g><g id="SvgjsG1653" featureKey="nameFeature-0" transform="matrix(2.634423492741628,0,0,2.634423492741628,112.50261091764654,-30.974989638936535)" fill="#ffffff"><path d="M22.852 12.148 l4.668 0 l0 27.852 l-5.2344 0 l-13.672 -21.25 l0 21.25 l-4.6289 0 l0 -27.852 l5.1758 0 l13.691 21.113 l0 -21.113 z M49.56990625 25.371000000000002 c3.2227 0.85938 5.3906 3.0273 5.3906 6.9531 c0 4.5508 -2.9492 7.6758 -8.3203 7.6758 l-11.152 0 l0 -27.852 l8.7305 0 c5.5078 0 8.7305 2.9492 8.7305 7.5 c0 2.5586 -1.1523 4.6484 -3.3789 5.7227 z M44.23790625 16.094 l-4.2383 0 l0 7.832 l4.707 0 c2.5 0 3.9063 -1.7773 3.9063 -3.9844 c0 -2.1875 -1.5234 -3.8477 -4.375 -3.8477 z M45.80090625 35.9375 c3.1641 0 4.6289 -1.9336 4.6289 -4.1211 c0 -2.2852 -1.5039 -4.1992 -4.8047 -4.1992 l-5.625 0 l0 8.3203 l5.8008 0 z M69.7659375 40.37109 c-5.8984 0 -10.313 -2.8125 -11.211 -7.7344 l4.8047 -1.1133 c0.50781 3.2031 3.1445 4.9609 6.582 4.9609 c2.7148 0 5.1758 -1.1523 5.1367 -4.082 c-0.039063 -3.0469 -3.418 -3.9258 -7.0703 -4.9609 c-4.2188 -1.2305 -8.5547 -2.6367 -8.5547 -7.7539 c0 -5.1953 4.2578 -7.9297 9.5508 -7.9297 c4.8828 0 9.5117 2.0508 10.586 7.0508 l-4.5117 1.1328 c-0.625 -2.9688 -2.9297 -4.2773 -5.8398 -4.2773 c-2.5977 0 -5.0586 1.1133 -5.0586 3.9453 c0 2.5781 2.9492 3.3789 6.3281 4.3164 c4.3555 1.2109 9.3945 2.6953 9.3945 8.2813 c0 5.7617 -4.8242 8.1641 -10.137 8.1641 z"></path></g><g id="SvgjsG1654" featureKey="sloganFeature-0" transform="matrix(1,0,0,1,121.4199994802475,84.78000020980835)" fill="#ffffff"><path d="M11.26 20 l-8.28 -12.56 l-0.04 0 l0 12.56 l-1.36 0 l0 -14.4 l1.54 0 l8.32 12.58 l0.04 0 l0 -12.58 l1.36 0 l0 14.4 l-1.58 0 z M16.14 20 l-1.4 0 l5.66 -14.4 l1.54 0 l5.52 14.4 l-1.4 0 l-1.66 -4.52 l-6.56 0 z M21.119999999999997 6.76 l-2.82 7.56 l5.64 0 z M28.1 6.76 l0 -1.16 l10.48 0 l0 1.16 l-4.56 0 l0 13.24 l-1.36 0 l0 -13.24 l-4.56 0 z M42.36000000000001 20 l-1.36 0 l0 -14.4 l1.36 0 l0 14.4 z M45.52000000000001 12.82 c-0.02 -4.2 2.34 -7.6 6.64 -7.6 c4.5 0 6.78 3.38 6.78 7.6 c0 4.14 -2.28 7.56 -6.72 7.56 s-6.7 -3.42 -6.7 -7.56 z M52.24000000000001 19.22 c3.74 0 5.34 -3.04 5.34 -6.4 c0 -4 -2.06 -6.44 -5.38 -6.44 c-3.7 0 -5.32 3.1 -5.32 6.44 c0 3.4 1.6 6.4 5.36 6.4 z M71.28000000000002 20 l-8.28 -12.56 l-0.04 0 l0 12.56 l-1.36 0 l0 -14.4 l1.54 0 l8.32 12.58 l0.04 0 l0 -12.58 l1.36 0 l0 14.4 l-1.58 0 z M76.16000000000001 20 l-1.4 0 l5.66 -14.4 l1.54 0 l5.52 14.4 l-1.4 0 l-1.66 -4.52 l-6.56 0 z M81.14000000000001 6.76 l-2.82 7.56 l5.64 0 z M98.50000000000001 20 l-9.08 0 l0 -14.4 l1.36 0 l0 13.24 l7.72 0 l0 1.16 z M107.46000000000002 13.120000000000001 l0 5.72 l3.46 0 c3 0 4.4 -0.4 4.4 -2.9 c0 -2.38 -1.68 -2.82 -4.24 -2.82 l-3.62 0 z M107.46000000000002 6.76 l0 5.2 l3.44 0 c2.84 0 3.76 -1 3.76 -2.74 c0 -1.8 -1.08 -2.46 -4.06 -2.46 l-3.14 0 z M111.98000000000002 20 l-5.88 0 l0 -14.4 l5.2 0 c3.38 0 4.72 1.46 4.72 3.62 c0 2 -1.14 2.9 -2.3 3.1 l0 0.04 c1.98 0.3 2.96 1.68 2.96 3.58 c0 3 -1.96 4.06 -4.7 4.06 z M118.88000000000002 12.82 c-0.02 -4.2 2.34 -7.6 6.64 -7.6 c4.5 0 6.78 3.38 6.78 7.6 c0 4.14 -2.28 7.56 -6.72 7.56 s-6.7 -3.42 -6.7 -7.56 z M125.60000000000002 19.22 c3.74 0 5.34 -3.04 5.34 -6.4 c0 -4 -2.06 -6.44 -5.38 -6.44 c-3.7 0 -5.32 3.1 -5.32 6.44 c0 3.4 1.6 6.4 5.36 6.4 z M134.44000000000003 12.82 c-0.02 -4.2 2.34 -7.6 6.64 -7.6 c4.5 0 6.78 3.38 6.78 7.6 c0 4.14 -2.28 7.56 -6.72 7.56 s-6.7 -3.42 -6.7 -7.56 z M141.16000000000003 19.22 c3.74 0 5.34 -3.04 5.34 -6.4 c0 -4 -2.06 -6.44 -5.38 -6.44 c-3.7 0 -5.32 3.1 -5.32 6.44 c0 3.4 1.6 6.4 5.36 6.4 z M152.00000000000003 20 l-1.36 0 l0 -14.4 l1.36 0 l0 7.46 l7.38 -7.46 l1.54 0 l-5.68 5.74 l6.68 8.66 l-1.66 0 l-6 -7.82 l-2.26 2.26 l0 5.56 z M168.70000000000005 15.7 l1.32 0 c0.22 2.58 1.94 3.52 4.14 3.52 c2.58 0 3.66 -1.4 3.66 -2.98 c0 -4.46 -8.78 -1.5 -8.78 -7.16 c0 -2 1.66 -3.86 4.88 -3.86 c3.24 0 4.86 1.96 4.84 4.3 l-1.3 0 c0 -2.2 -1.7 -3.14 -3.54 -3.14 c-2.76 0 -3.76 1.7 -3.52 3.18 c0.62 3.72 8.78 1.04 8.78 6.62 c0 2.64 -1.94 4.2 -5.26 4.2 c-3 0 -5.22 -1.56 -5.22 -4.68 z M180.38000000000002 6.76 l0 -1.16 l10.48 0 l0 1.16 l-4.56 0 l0 13.24 l-1.36 0 l0 -13.24 l-4.56 0 z M192.24000000000004 12.82 c-0.02 -4.2 2.34 -7.6 6.64 -7.6 c4.5 0 6.78 3.38 6.78 7.6 c0 4.14 -2.28 7.56 -6.72 7.56 s-6.7 -3.42 -6.7 -7.56 z M198.96000000000004 19.22 c3.74 0 5.34 -3.04 5.34 -6.4 c0 -4 -2.06 -6.44 -5.38 -6.44 c-3.7 0 -5.32 3.1 -5.32 6.44 c0 3.4 1.6 6.4 5.36 6.4 z M209.70000000000005 12.3 l4.24 0 c2.02 0 3.58 -0.84 3.58 -2.86 c0 -2.16 -1.68 -2.68 -3.5 -2.68 l-4.32 0 l0 5.54 z M213.98000000000005 13.46 l-4.28 0 l0 6.54 l-1.36 0 l0 -14.4 l5.64 0 c3.16 0 4.9 1.12 4.9 3.78 c0 1.82 -0.68 2.78 -2.34 3.52 c1.7 0.58 1.8 2.38 1.84 3.9 c0.06 2.18 0.24 2.78 0.6 3.06 l0 0.14 l-1.5 0 c-0.56 -0.98 -0.42 -3.68 -0.64 -4.78 c-0.32 -1.56 -1.5 -1.76 -2.86 -1.76 z M231.48000000000005 20 l-9.78 0 l0 -14.4 l9.58 0 l0 1.16 l-8.22 0 l0 5.2 l7.42 0 l0 1.16 l-7.42 0 l0 5.72 l8.42 0 l0 1.16 z"></path></g>
			</g>
		</svg>
	